<svg width="29" height="40" viewBox="0 0 29 40" fill="none" xmlns="http://www.w3.org/2000/svg">
<path d="M14.5 34C21.4036 34 27 28.4036 27 21.5C27 14.5964 21.4036 9 14.5 9C7.59644 9 2 14.5964 2 21.5C2 28.4036 7.59644 34 14.5 34Z" stroke="#E6A23C" stroke-width="3"/>
<path d="M14.5 24C15.8807 24 17 22.8807 17 21.5C17 20.1193 15.8807 19 14.5 19C13.1193 19 12 20.1193 12 21.5C12 22.8807 13.1193 24 14.5 24Z" fill="#E6A23C"/>
<path d="M14.5 21.5V16" stroke="#E6A23C" stroke-width="3" stroke-linecap="round" stroke-linejoin="round"/>
<path d="M15 22L19.7632 24.75" stroke="#E6A23C" stroke-width="3" stroke-linecap="round" stroke-linejoin="round"/>
<path d="M9 33L7 37" stroke="#E6A23C" stroke-width="3" stroke-linecap="round" stroke-linejoin="round"/>
<path d="M20.1756 33L22.2361 36.9692" stroke="#E6A23C" stroke-width="3" stroke-linecap="round" stroke-linejoin="round"/>
<path d="M6.48753 3.09046C4.9306 3.65713 4.12784 5.37866 4.69452 6.93559C6.72557 5.48722 7.93988 5.04836 10.3327 4.88347C9.766 3.32654 8.04447 2.52378 6.48753 3.09046Z" fill="#E6A23C" stroke="#E6A23C" stroke-width="2"/>
<path d="M22.513 3.09045C20.9561 2.52377 19.2346 3.32654 18.6679 4.88347C21.1227 5.15364 22.3687 5.6118 24.3061 6.93559C24.8727 5.37866 24.07 3.65713 22.513 3.09045Z" fill="#E6A23C" stroke="#E6A23C" stroke-width="2"/>
</svg>
