<svg width="104" height="112" viewBox="0 0 104 112" fill="none" xmlns="http://www.w3.org/2000/svg">
<g clip-path="url(#clip0)">
<rect width="104" height="112" fill="white"/>
<circle cx="51" cy="59" r="44" stroke="#E6A23C" stroke-width="6" stroke-linecap="round" stroke-linejoin="round"/>
<circle cx="50.5" cy="59.5" r="6.5" fill="#E6A23C"/>
<path d="M50.5 59.5V36" stroke="#E6A23C" stroke-width="6" stroke-linecap="round" stroke-linejoin="round"/>
<path d="M66.8088 62.7875L51 60" stroke="#E6A23C" stroke-width="6" stroke-linecap="round" stroke-linejoin="round"/>
<path d="M21.5 92L6.5 106" stroke="#E6A23C" stroke-width="6" stroke-linecap="round" stroke-linejoin="round"/>
<path d="M81 92L95 107" stroke="#E6A23C" stroke-width="6" stroke-linecap="round" stroke-linejoin="round"/>
<path d="M10.7801 7.80468C4.89881 11.9228 3.46949 20.0289 7.5876 25.9101C14.0744 16.3848 19.0184 13.6496 28.8855 10.9972C24.7674 5.11589 16.6613 3.68657 10.7801 7.80468Z" fill="#E6A23C" stroke="#E6A23C" stroke-width="4"/>
<path d="M89.1055 7.45649C83.2243 3.33839 75.1182 4.76771 71 10.649C82.1695 13.4867 86.4308 17.1971 92.298 25.562C96.4161 19.6807 94.9868 11.5746 89.1055 7.45649Z" fill="#E6A23C" stroke="#E6A23C" stroke-width="4"/>
</g>
<defs>
<clipPath id="clip0">
<rect width="104" height="112" fill="white"/>
</clipPath>
</defs>
</svg>
